<mxfile host="www.draw.io" modified="2023-08-18T21:55:53.528Z" agent="Mozilla/5.0 (Windows NT 10.0; Win64; x64) AppleWebKit/537.36 (KHTML, like Gecko) Chrome/115.0.0.0 Safari/537.36" etag="3f8CfPWJ_qVwx0ADFNkH" version="21.6.8" type="device">
  <diagram name="Page-1" id="7KE8QbQysmwXDGitf-yx">
    <mxGraphModel dx="1120" dy="446" grid="1" gridSize="10" guides="1" tooltips="1" connect="1" arrows="1" fold="1" page="1" pageScale="1" pageWidth="1169" pageHeight="827" math="0" shadow="0">
      <root>
        <mxCell id="0" />
        <mxCell id="1" parent="0" />
        <mxCell id="IVt_gISAdTJWQQ9E0lY9-1" value="" style="rounded=0;whiteSpace=wrap;html=1;" vertex="1" parent="1">
          <mxGeometry x="270" y="50" width="550" height="410" as="geometry" />
        </mxCell>
        <mxCell id="IVt_gISAdTJWQQ9E0lY9-13" value="DIV" style="rounded=0;whiteSpace=wrap;html=1;" vertex="1" parent="1">
          <mxGeometry x="348.22" y="80" width="133.57" height="170" as="geometry" />
        </mxCell>
        <mxCell id="IVt_gISAdTJWQQ9E0lY9-14" value="DIV" style="rounded=0;whiteSpace=wrap;html=1;" vertex="1" parent="1">
          <mxGeometry x="348.22" y="260" width="133.57" height="170" as="geometry" />
        </mxCell>
        <mxCell id="IVt_gISAdTJWQQ9E0lY9-15" value="DIV" style="rounded=0;whiteSpace=wrap;html=1;" vertex="1" parent="1">
          <mxGeometry x="530" y="160" width="133.57" height="170" as="geometry" />
        </mxCell>
        <mxCell id="IVt_gISAdTJWQQ9E0lY9-16" value="DIV" style="rounded=0;whiteSpace=wrap;html=1;" vertex="1" parent="1">
          <mxGeometry x="543.57" y="170" width="106.43" height="30" as="geometry" />
        </mxCell>
        <mxCell id="IVt_gISAdTJWQQ9E0lY9-17" value="DIV" style="rounded=0;whiteSpace=wrap;html=1;" vertex="1" parent="1">
          <mxGeometry x="543.57" y="287" width="106.43" height="30" as="geometry" />
        </mxCell>
        <mxCell id="IVt_gISAdTJWQQ9E0lY9-18" value="" style="rounded=0;whiteSpace=wrap;html=1;" vertex="1" parent="1">
          <mxGeometry x="614" y="176" width="30" height="20" as="geometry" />
        </mxCell>
        <mxCell id="IVt_gISAdTJWQQ9E0lY9-19" value="DIV id=&quot;header&quot;" style="rounded=0;whiteSpace=wrap;html=1;" vertex="1" parent="1">
          <mxGeometry x="856" y="60" width="434" height="70" as="geometry" />
        </mxCell>
        <mxCell id="IVt_gISAdTJWQQ9E0lY9-20" value="DIV id=&quot;footer&quot;" style="rounded=0;whiteSpace=wrap;html=1;" vertex="1" parent="1">
          <mxGeometry x="858" y="378.5" width="434" height="70" as="geometry" />
        </mxCell>
        <mxCell id="IVt_gISAdTJWQQ9E0lY9-21" value="DIV id=&quot;maiin&quot;" style="rounded=0;whiteSpace=wrap;html=1;" vertex="1" parent="1">
          <mxGeometry x="859" y="150" width="434" height="210" as="geometry" />
        </mxCell>
      </root>
    </mxGraphModel>
  </diagram>
</mxfile>
